Coordinates
version=1
nRows=32
nColumns=12
inDegrees=yes

Units are S.I. units (second, meters, Newtons, ...)
Angles are in degrees

endheader
time	SC_y	SC_z	SC_x	AC_y	AC_z	AC_x	GH_y	GH_z	GH_yy	EL_x	PS_y
       0.0              -17.27          13.22          41.49          34.35          1.754         -6.086          130.0         -9.366          161.1          106.9          10.38
   0.04084              -17.27          13.22          41.49          34.36          1.754         -6.083          130.0         -9.357          161.1          106.9          10.38
   0.08167              -17.27          13.22           41.5          34.36          1.753          -6.08          130.0         -9.348          161.0          106.9          10.39
    0.1225              -17.27          13.22           41.5          34.37          1.753         -6.076          130.0         -9.339          161.0          106.9          10.39
    0.1633              -17.27          13.22          41.51          34.37          1.752         -6.073          130.0         -9.328          160.9          106.9          10.39
    0.2042              -17.27          13.22          41.52          34.38          1.751         -6.069          130.0         -9.317          160.9          106.9           10.4
     0.245              -17.27          13.22          41.52          34.39          1.751         -6.064          130.0         -9.306          160.9          106.9           10.4
    0.2859              -17.27          13.22          41.53           34.4           1.75          -6.06          130.1         -9.293          160.8          106.9          10.41
    0.3267              -17.27          13.22          41.54           34.4          1.749         -6.055          130.1          -9.28          160.8          106.9          10.41
    0.3675              -17.26          13.22          41.54          34.41          1.748          -6.05          130.1         -9.265          160.7          106.9          10.42
    0.4084              -17.26          13.23          41.55          34.42          1.747         -6.045          130.1          -9.25          160.6          106.9          10.42
    0.4492              -17.26          13.23          41.56          34.43          1.746         -6.039          130.1         -9.233          160.6          106.9          10.43
      0.49              -17.26          13.23          41.57          34.44          1.745         -6.033          130.1         -9.215          160.5          106.9          10.44
    0.5309              -17.26          13.23          41.58          34.46          1.744         -6.026          130.1         -9.196          160.4          106.9          10.44
    0.5717              -17.26          13.23          41.59          34.47          1.743         -6.018          130.1         -9.175          160.4          106.9          10.45
    0.6125              -17.25          13.24          41.61          34.48          1.741          -6.01          130.1         -9.152          160.3          106.8          10.46
    0.6534              -17.25          13.24          41.62           34.5           1.74         -6.002          130.1         -9.127          160.2          106.8          10.47
    0.6942              -17.25          13.24          41.64          34.51          1.738         -5.992          130.1           -9.1          160.1          106.8          10.48
     0.735              -17.25          13.24          41.65          34.53          1.736         -5.982          130.1         -9.071          160.0          106.8          10.49
    0.7759              -17.24          13.25          41.67          34.55          1.734          -5.97          130.1         -9.039          159.8          106.8          10.51
    0.8167              -17.24          13.25          41.69          34.57          1.732         -5.958          130.1         -9.003          159.7          106.8          10.52
    0.8576              -17.24          13.25          41.71           34.6           1.73         -5.944          130.2         -8.965          159.6          106.8          10.54
    0.8984              -17.23          13.26          41.74          34.62          1.727         -5.929          130.2         -8.922          159.4          106.7          10.55
    0.9392              -17.23          13.26          41.76          34.65          1.724         -5.912          130.2         -8.874          159.2          106.7          10.57
    0.9801              -17.23          13.26          41.79          34.68          1.721         -5.894          130.2         -8.821          159.0          106.7          10.59
     1.021              -17.22          13.27          41.82          34.72          1.717         -5.873          130.2         -8.762          158.8          106.7          10.61
     1.062              -17.22          13.28          41.86          34.76          1.713         -5.849          130.3         -8.696          158.5          106.6          10.64
     1.103              -17.21          13.28           41.9           34.8          1.708         -5.823          130.3         -8.621          158.2          106.6          10.67
     1.143               -17.2          13.29          41.95          34.85          1.703         -5.794          130.3         -8.537          157.9          106.6           10.7
     1.184              -17.19           13.3           42.0          34.91          1.697          -5.76          130.3         -8.442          157.6          106.5          10.74
     1.225              -17.18          13.31          42.06          34.98           1.69         -5.721          130.4         -8.333          157.1          106.5          10.78
     1.266              -17.17          13.32          42.13          35.05          1.683         -5.677          130.4         -8.207          156.7          106.4          10.83
